General
Complete name                    : Edward Maya - This Is My Life (Official Music Video) [HD].mp4
Format                           : MPEG-4
Format profile                   : Base Media / Version 2
Codec ID                         : mp42
File size                        : 100 MiB
Duration                         : 3mn 51s


Video
ID                               : 1
Format                           : AVC
Format/Info                      : Advanced Video Codec
Format profile                   : High@L4.0
Format settings, CABAC           : Yes
Format settings, ReFrames        : 1 frame
Codec ID                         : avc1
Codec ID/Info                    : Advanced Video Coding
Duration                         : 3mn 51s
Bit rate mode                    : Variable
Bit rate                         : 3 503 Kbps
Maximum bit rate                 : 7 101 Kbps
Width                            : 1 920 pixels
Height                           : 1 080 pixels
Display aspect ratio             : 16:9
Frame rate mode                  : Constant
Frame rate                       : 25.000 fps
Resolution                       : 24 bits
Colorimetry                      : 4:2:0
Scan type                        : Progressive
Bits/(Pixel*Frame)               : 0.068
Stream size                      : 96.8 MiB (96%)

Audio
ID                               : 2
Format                           : AAC
Format/Info                      : Advanced Audio Codec
Format version                   : Version 4
Format profile                   : LC
Format settings, SBR             : No
Codec ID                         : 40
Duration                         : 3mn 51s
Bit rate mode                    : Variable
Bit rate                         : 127 Kbps
Maximum bit rate                 : 168 Kbps
Channel(s)                       : 2 channels
Channel positions                : L R
Sampling rate                    : 44.1 KHz
Resolution                       : 16 bits
Stream size                      : 3.51 MiB (3%)




 
http://img.sceper.eu/images/vlcsnaywy.png
 
http://img.sceper.eu/images/vlcsnaaha.png
 
http://img.sceper.eu/images/vlcsnaufu.png